<?xml version="1.0" encoding="UTF-8"?> <svg xmlns="http://www.w3.org/2000/svg" width="864" height="161" viewBox="0 0 864 161" fill="none"> <path d="M163.656 161H120.487L109.267 124.66H54.1471L42.6841 161H0.490229L57.0739 0.0292606L107.316 0.0292606L163.656 161ZM61.9518 96.1239H101.463L81.7073 31.0039L61.9518 96.1239ZM368.713 0.0292606V161H331.641V87.0998L332.86 37.5891H332.372L292.617 161H258.716L218.961 37.5891H218.473L219.693 87.0998V161H182.377V0.0292606L242.131 0.0292606L267.496 81.978L276.52 116.123H277.008L286.276 82.2219L311.397 0.0292606L368.713 0.0292606ZM550.696 161H507.527L496.308 124.66H441.188L429.725 161H387.531L444.114 0.0292606L494.357 0.0292606L550.696 161ZM448.992 96.1239H488.503L468.748 31.0039L448.992 96.1239ZM593.563 143.44L586.246 129.294H698.682V161H560.637V130.757L663.317 17.5897L670.634 31.7356L562.344 31.7356V0.0292606L695.755 0.0292606V30.2722L593.563 143.44ZM863.991 0.0292606L807.164 102.221V161L765.214 161V102.221L708.386 0.0292606H751.799L774.482 44.1743L786.433 71.0027L798.627 44.1743L821.31 0.0292606L863.991 0.0292606Z" fill="white"></path> </svg> 